<svg xmlns="http://www.w3.org/2000/svg" width="1600" height="760" viewBox="0 0 1600 760" fill="none">
  <rect width="1600" height="760" rx="24" fill="#F7F8F5"/>
  <text x="80" y="78" font-family="Inter,Arial,sans-serif" font-size="18" font-weight="600" fill="#737A75" letter-spacing="3">THE ONTOS STACK</text>
  <g font-family="Inter,Arial,sans-serif">
    <rect x="500" y="120" width="600" height="120" rx="18" fill="#111713"/>
    <text x="800" y="170" text-anchor="middle" font-size="28" font-weight="600" fill="white">WORLD REASONING</text>
    <text x="800" y="207" text-anchor="middle" font-size="18" fill="#CDD2CE">Understand space, objects, state and change</text>
    <path d="M800 240V292" stroke="#7C847E" stroke-width="2"/>
    <path d="M792 282L800 292L808 282" stroke="#7C847E" stroke-width="2" fill="none"/>
    <rect x="500" y="292" width="600" height="120" rx="18" fill="#E9ECE7" stroke="#C8CEC9"/>
    <text x="800" y="342" text-anchor="middle" font-size="28" font-weight="600" fill="#111713">P37 NEURO</text>
    <text x="800" y="379" text-anchor="middle" font-size="18" fill="#59605B">Shared intelligence across machines</text>
    <path d="M800 412V462M800 462H300M800 462H1300" stroke="#AAB2AC" stroke-width="2"/>
    <path d="M300 462V502M800 462V502M1300 462V502" stroke="#AAB2AC" stroke-width="2"/>
    <g>
      <rect x="110" y="502" width="380" height="138" rx="18" fill="white" stroke="#C8CEC9"/>
      <text x="300" y="554" text-anchor="middle" font-size="26" font-weight="600" fill="#111713">SENSE</text>
      <text x="300" y="590" text-anchor="middle" font-size="17" fill="#59605B">Machine state &amp; capability</text>
      <text x="300" y="618" text-anchor="middle" font-size="15" fill="#7C847E">validated context</text>
    </g>
    <g>
      <rect x="610" y="502" width="380" height="138" rx="18" fill="white" stroke="#C8CEC9"/>
      <text x="800" y="554" text-anchor="middle" font-size="26" font-weight="600" fill="#111713">UMP</text>
      <text x="800" y="590" text-anchor="middle" font-size="17" fill="#59605B">Machine communication</text>
      <text x="800" y="618" text-anchor="middle" font-size="15" fill="#7C847E">manufacturer-neutral</text>
    </g>
    <g>
      <rect x="1110" y="502" width="380" height="138" rx="18" fill="white" stroke="#C8CEC9"/>
      <text x="1300" y="554" text-anchor="middle" font-size="26" font-weight="600" fill="#111713">VERIFY</text>
      <text x="1300" y="590" text-anchor="middle" font-size="17" fill="#59605B">Evidence &amp; trust</text>
      <text x="1300" y="618" text-anchor="middle" font-size="15" fill="#7C847E">machine-generated data</text>
    </g>
    <path d="M300 640V687H1300V640" stroke="#AAB2AC" stroke-width="2"/>
    <rect x="620" y="670" width="360" height="58" rx="29" fill="#111713"/>
    <text x="800" y="707" text-anchor="middle" font-size="20" font-weight="600" fill="white">PHYSICAL MACHINES</text>
  </g>
</svg>